<?xml version="1.0" encoding="UTF-8" standalone="no"?>
<!DOCTYPE svg PUBLIC "-//W3C//DTD SVG 1.1//EN"
 "http://www.w3.org/Graphics/SVG/1.1/DTD/svg11.dtd">
<!-- Generated by graphviz version 3.0.0 (20220226.1711)
 -->
<!-- Title: dependencies Pages: 1 -->
<svg width="852pt" height="247pt"
 viewBox="0.00 0.00 852.00 246.80" xmlns="http://www.w3.org/2000/svg" xmlns:xlink="http://www.w3.org/1999/xlink">
<g id="graph0" class="graph" transform="scale(1 1) rotate(0) translate(4 242.8)">
<title>dependencies</title>
<polygon fill="white" stroke="transparent" points="-4,4 -4,-242.8 848,-242.8 848,4 -4,4"/>
<text text-anchor="middle" x="422" y="-8.2" font-family="sans-serif" font-size="14.00">dependencies</text>
<g id="clust1" class="cluster">
<title>cluster_AuthModule</title>
<polygon fill="none" stroke="black" stroke-dasharray="1,5" points="8,-32.8 8,-230.8 836,-230.8 836,-32.8 8,-32.8"/>
</g>
<g id="clust4" class="cluster">
<title>cluster_AuthModule_exports</title>
<polygon fill="none" stroke="black" points="344,-170.8 344,-222.8 450,-222.8 450,-170.8 344,-170.8"/>
</g>
<g id="clust6" class="cluster">
<title>cluster_AuthModule_providers</title>
<polygon fill="none" stroke="black" points="236,-40.8 236,-92.8 828,-92.8 828,-40.8 236,-40.8"/>
</g>
<g id="clust3" class="cluster">
<title>cluster_AuthModule_imports</title>
<polygon fill="none" stroke="black" points="16,-40.8 16,-92.8 228,-92.8 228,-40.8 16,-40.8"/>
</g>
<!-- MailModule -->
<g id="node1" class="node">
<title>MailModule</title>
<polygon fill="#8dd3c7" stroke="black" points="219.99,-84.8 216.99,-88.8 195.99,-88.8 192.99,-84.8 134.01,-84.8 134.01,-48.8 219.99,-48.8 219.99,-84.8"/>
<text text-anchor="middle" x="177" y="-62.6" font-family="Times,serif" font-size="14.00">MailModule</text>
</g>
<!-- AuthModule -->
<g id="node3" class="node">
<title>AuthModule</title>
<polygon fill="#8dd3c7" stroke="black" points="440.55,-149.8 437.55,-153.8 416.55,-153.8 413.55,-149.8 353.45,-149.8 353.45,-113.8 440.55,-113.8 440.55,-149.8"/>
<text text-anchor="middle" x="397" y="-127.6" font-family="Times,serif" font-size="14.00">AuthModule</text>
</g>
<!-- MailModule&#45;&gt;AuthModule -->
<g id="edge1" class="edge">
<title>MailModule&#45;&gt;AuthModule</title>
<path fill="none" stroke="black" d="M177,-84.82C177,-102.17 177,-125.8 177,-125.8 177,-125.8 343.27,-125.8 343.27,-125.8"/>
<polygon fill="black" stroke="black" points="343.27,-129.3 353.27,-125.8 343.27,-122.3 343.27,-129.3"/>
</g>
<!-- RedisModule -->
<g id="node2" class="node">
<title>RedisModule</title>
<polygon fill="#8dd3c7" stroke="black" points="115.94,-84.8 112.94,-88.8 91.94,-88.8 88.94,-84.8 24.06,-84.8 24.06,-48.8 115.94,-48.8 115.94,-84.8"/>
<text text-anchor="middle" x="70" y="-62.6" font-family="Times,serif" font-size="14.00">RedisModule</text>
</g>
<!-- RedisModule&#45;&gt;AuthModule -->
<g id="edge2" class="edge">
<title>RedisModule&#45;&gt;AuthModule</title>
<path fill="none" stroke="black" d="M70,-85.08C70,-106.12 70,-137.8 70,-137.8 70,-137.8 343.24,-137.8 343.24,-137.8"/>
<polygon fill="black" stroke="black" points="343.24,-141.3 353.24,-137.8 343.24,-134.3 343.24,-141.3"/>
</g>
<!-- AuthService  -->
<g id="node4" class="node">
<title>AuthService </title>
<polygon fill="#fb8072" stroke="black" points="441.98,-214.8 352.02,-214.8 352.02,-178.8 441.98,-178.8 441.98,-214.8"/>
<text text-anchor="middle" x="397" y="-192.6" font-family="Times,serif" font-size="14.00">AuthService </text>
</g>
<!-- AuthModule&#45;&gt;AuthService  -->
<g id="edge3" class="edge">
<title>AuthModule&#45;&gt;AuthService </title>
<path fill="none" stroke="black" stroke-dasharray="5,2" d="M397,-149.91C397,-149.91 397,-168.79 397,-168.79"/>
<polygon fill="black" stroke="black" points="393.5,-168.79 397,-178.79 400.5,-168.79 393.5,-168.79"/>
</g>
<!-- AuthService -->
<g id="node5" class="node">
<title>AuthService</title>
<ellipse fill="#fdb462" stroke="black" cx="761" cy="-66.8" rx="59.11" ry="18"/>
<text text-anchor="middle" x="761" y="-62.6" font-family="Times,serif" font-size="14.00">AuthService</text>
</g>
<!-- AuthService&#45;&gt;AuthModule -->
<g id="edge4" class="edge">
<title>AuthService&#45;&gt;AuthModule</title>
<path fill="none" stroke="black" d="M761,-85.08C761,-106.12 761,-137.8 761,-137.8 761,-137.8 450.91,-137.8 450.91,-137.8"/>
<polygon fill="black" stroke="black" points="450.91,-134.3 440.91,-137.8 450.91,-141.3 450.91,-134.3"/>
</g>
<!-- JwtStrategy -->
<g id="node6" class="node">
<title>JwtStrategy</title>
<ellipse fill="#fdb462" stroke="black" cx="627" cy="-66.8" rx="56.77" ry="18"/>
<text text-anchor="middle" x="627" y="-62.6" font-family="Times,serif" font-size="14.00">JwtStrategy</text>
</g>
<!-- JwtStrategy&#45;&gt;AuthModule -->
<g id="edge5" class="edge">
<title>JwtStrategy&#45;&gt;AuthModule</title>
<path fill="none" stroke="black" d="M627,-84.82C627,-102.17 627,-125.8 627,-125.8 627,-125.8 450.8,-125.8 450.8,-125.8"/>
<polygon fill="black" stroke="black" points="450.8,-122.3 440.8,-125.8 450.8,-129.3 450.8,-122.3"/>
</g>
<!-- RefreshStrategy -->
<g id="node7" class="node">
<title>RefreshStrategy</title>
<ellipse fill="#fdb462" stroke="black" cx="479" cy="-66.8" rx="73" ry="18"/>
<text text-anchor="middle" x="479" y="-62.6" font-family="Times,serif" font-size="14.00">RefreshStrategy</text>
</g>
<!-- RefreshStrategy&#45;&gt;AuthModule -->
<g id="edge6" class="edge">
<title>RefreshStrategy&#45;&gt;AuthModule</title>
<path fill="none" stroke="black" d="M423.26,-78.72C423.26,-78.72 423.26,-103.57 423.26,-103.57"/>
<polygon fill="black" stroke="black" points="419.76,-103.57 423.26,-113.57 426.76,-103.57 419.76,-103.57"/>
</g>
<!-- UserRepository -->
<g id="node8" class="node">
<title>UserRepository</title>
<ellipse fill="#fdb462" stroke="black" cx="316" cy="-66.8" rx="71.8" ry="18"/>
<text text-anchor="middle" x="316" y="-62.6" font-family="Times,serif" font-size="14.00">UserRepository</text>
</g>
<!-- UserRepository&#45;&gt;AuthModule -->
<g id="edge7" class="edge">
<title>UserRepository&#45;&gt;AuthModule</title>
<path fill="none" stroke="black" d="M370.44,-78.72C370.44,-78.72 370.44,-103.57 370.44,-103.57"/>
<polygon fill="black" stroke="black" points="366.94,-103.57 370.44,-113.57 373.94,-103.57 366.94,-103.57"/>
</g>
</g>
</svg>
