<?xml version="1.0" encoding="UTF-8" standalone="no"?>
<!DOCTYPE svg PUBLIC "-//W3C//DTD SVG 1.1//EN"
 "http://www.w3.org/Graphics/SVG/1.1/DTD/svg11.dtd">
<!-- Generated by graphviz version 3.0.0 (20220226.1711)
 -->
<!-- Title: dependencies Pages: 1 -->
<svg width="1430pt" height="174pt"
 viewBox="0.00 0.00 1430.00 173.80" xmlns="http://www.w3.org/2000/svg" xmlns:xlink="http://www.w3.org/1999/xlink">
<g id="graph0" class="graph" transform="scale(1 1) rotate(0) translate(4 169.8)">
<title>dependencies</title>
<polygon fill="white" stroke="transparent" points="-4,4 -4,-169.8 1426,-169.8 1426,4 -4,4"/>
<text text-anchor="middle" x="711" y="-8.2" font-family="sans-serif" font-size="14.00">dependencies</text>
<g id="clust1" class="cluster">
<title>cluster_PostModule</title>
<polygon fill="none" stroke="black" stroke-dasharray="1,5" points="8,-32.8 8,-157.8 1414,-157.8 1414,-32.8 8,-32.8"/>
</g>
<g id="clust3" class="cluster">
<title>cluster_PostModule_imports</title>
<polygon fill="none" stroke="black" points="1304,-40.8 1304,-92.8 1406,-92.8 1406,-40.8 1304,-40.8"/>
</g>
<g id="clust6" class="cluster">
<title>cluster_PostModule_providers</title>
<polygon fill="none" stroke="black" points="16,-40.8 16,-92.8 1296,-92.8 1296,-40.8 16,-40.8"/>
</g>
<!-- MailModule -->
<g id="node1" class="node">
<title>MailModule</title>
<polygon fill="#8dd3c7" stroke="black" points="1397.99,-84.8 1394.99,-88.8 1373.99,-88.8 1370.99,-84.8 1312.01,-84.8 1312.01,-48.8 1397.99,-48.8 1397.99,-84.8"/>
<text text-anchor="middle" x="1355" y="-62.6" font-family="Times,serif" font-size="14.00">MailModule</text>
</g>
<!-- PostModule -->
<g id="node2" class="node">
<title>PostModule</title>
<polygon fill="#8dd3c7" stroke="black" points="704.68,-149.8 701.68,-153.8 680.68,-153.8 677.68,-149.8 621.32,-149.8 621.32,-113.8 704.68,-113.8 704.68,-149.8"/>
<text text-anchor="middle" x="663" y="-127.6" font-family="Times,serif" font-size="14.00">PostModule</text>
</g>
<!-- MailModule&#45;&gt;PostModule -->
<g id="edge1" class="edge">
<title>MailModule&#45;&gt;PostModule</title>
<path fill="none" stroke="black" d="M1355,-85.09C1355,-107.01 1355,-140.8 1355,-140.8 1355,-140.8 714.73,-140.8 714.73,-140.8"/>
<polygon fill="black" stroke="black" points="714.73,-137.3 704.73,-140.8 714.73,-144.3 714.73,-137.3"/>
</g>
<!-- CategoryRepository -->
<g id="node3" class="node">
<title>CategoryRepository</title>
<ellipse fill="#fdb462" stroke="black" cx="1199" cy="-66.8" rx="88.63" ry="18"/>
<text text-anchor="middle" x="1199" y="-62.6" font-family="Times,serif" font-size="14.00">CategoryRepository</text>
</g>
<!-- CategoryRepository&#45;&gt;PostModule -->
<g id="edge2" class="edge">
<title>CategoryRepository&#45;&gt;PostModule</title>
<path fill="none" stroke="black" d="M1199,-84.91C1199,-104.14 1199,-131.8 1199,-131.8 1199,-131.8 715.06,-131.8 715.06,-131.8"/>
<polygon fill="black" stroke="black" points="715.06,-128.3 705.06,-131.8 715.06,-135.3 715.06,-128.3"/>
</g>
<!-- PostCommentRepository -->
<g id="node4" class="node">
<title>PostCommentRepository</title>
<ellipse fill="#fdb462" stroke="black" cx="984" cy="-66.8" rx="108.3" ry="18"/>
<text text-anchor="middle" x="984" y="-62.6" font-family="Times,serif" font-size="14.00">PostCommentRepository</text>
</g>
<!-- PostCommentRepository&#45;&gt;PostModule -->
<g id="edge3" class="edge">
<title>PostCommentRepository&#45;&gt;PostModule</title>
<path fill="none" stroke="black" d="M984,-84.83C984,-101.2 984,-122.8 984,-122.8 984,-122.8 714.97,-122.8 714.97,-122.8"/>
<polygon fill="black" stroke="black" points="714.97,-119.3 704.97,-122.8 714.97,-126.3 714.97,-119.3"/>
</g>
<!-- PostCommentService -->
<g id="node5" class="node">
<title>PostCommentService</title>
<ellipse fill="#fdb462" stroke="black" cx="763" cy="-66.8" rx="94.95" ry="18"/>
<text text-anchor="middle" x="763" y="-62.6" font-family="Times,serif" font-size="14.00">PostCommentService</text>
</g>
<!-- PostCommentService&#45;&gt;PostModule -->
<g id="edge4" class="edge">
<title>PostCommentService&#45;&gt;PostModule</title>
<path fill="none" stroke="black" d="M686.56,-77.53C686.56,-77.53 686.56,-103.67 686.56,-103.67"/>
<polygon fill="black" stroke="black" points="683.06,-103.67 686.56,-113.67 690.06,-103.67 683.06,-103.67"/>
</g>
<!-- PostLikeRepository -->
<g id="node6" class="node">
<title>PostLikeRepository</title>
<ellipse fill="#fdb462" stroke="black" cx="563" cy="-66.8" rx="87.51" ry="18"/>
<text text-anchor="middle" x="563" y="-62.6" font-family="Times,serif" font-size="14.00">PostLikeRepository</text>
</g>
<!-- PostLikeRepository&#45;&gt;PostModule -->
<g id="edge5" class="edge">
<title>PostLikeRepository&#45;&gt;PostModule</title>
<path fill="none" stroke="black" d="M635.96,-76.96C635.96,-76.96 635.96,-103.61 635.96,-103.61"/>
<polygon fill="black" stroke="black" points="632.46,-103.61 635.96,-113.61 639.46,-103.61 632.46,-103.61"/>
</g>
<!-- PostRepository -->
<g id="node7" class="node">
<title>PostRepository</title>
<ellipse fill="#fdb462" stroke="black" cx="387" cy="-66.8" rx="70.12" ry="18"/>
<text text-anchor="middle" x="387" y="-62.6" font-family="Times,serif" font-size="14.00">PostRepository</text>
</g>
<!-- PostRepository&#45;&gt;PostModule -->
<g id="edge6" class="edge">
<title>PostRepository&#45;&gt;PostModule</title>
<path fill="none" stroke="black" d="M387,-84.83C387,-101.2 387,-122.8 387,-122.8 387,-122.8 611.08,-122.8 611.08,-122.8"/>
<polygon fill="black" stroke="black" points="611.08,-126.3 621.08,-122.8 611.08,-119.3 611.08,-126.3"/>
</g>
<!-- PostService -->
<g id="node8" class="node">
<title>PostService</title>
<ellipse fill="#fdb462" stroke="black" cx="242" cy="-66.8" rx="56.77" ry="18"/>
<text text-anchor="middle" x="242" y="-62.6" font-family="Times,serif" font-size="14.00">PostService</text>
</g>
<!-- PostService&#45;&gt;PostModule -->
<g id="edge7" class="edge">
<title>PostService&#45;&gt;PostModule</title>
<path fill="none" stroke="black" d="M242,-84.91C242,-104.14 242,-131.8 242,-131.8 242,-131.8 611.09,-131.8 611.09,-131.8"/>
<polygon fill="black" stroke="black" points="611.09,-135.3 621.09,-131.8 611.09,-128.3 611.09,-135.3"/>
</g>
<!-- UserRepository -->
<g id="node9" class="node">
<title>UserRepository</title>
<ellipse fill="#fdb462" stroke="black" cx="96" cy="-66.8" rx="71.8" ry="18"/>
<text text-anchor="middle" x="96" y="-62.6" font-family="Times,serif" font-size="14.00">UserRepository</text>
</g>
<!-- UserRepository&#45;&gt;PostModule -->
<g id="edge8" class="edge">
<title>UserRepository&#45;&gt;PostModule</title>
<path fill="none" stroke="black" d="M96,-85.09C96,-107.01 96,-140.8 96,-140.8 96,-140.8 611.31,-140.8 611.31,-140.8"/>
<polygon fill="black" stroke="black" points="611.31,-144.3 621.31,-140.8 611.31,-137.3 611.31,-144.3"/>
</g>
</g>
</svg>
