<?xml version="1.0" encoding="UTF-8" standalone="no"?>
<!DOCTYPE svg PUBLIC "-//W3C//DTD SVG 1.1//EN"
 "http://www.w3.org/Graphics/SVG/1.1/DTD/svg11.dtd">
<!-- Generated by graphviz version 3.0.0 (20220226.1711)
 -->
<!-- Title: dependencies Pages: 1 -->
<svg width="630pt" height="174pt"
 viewBox="0.00 0.00 630.00 173.80" xmlns="http://www.w3.org/2000/svg" xmlns:xlink="http://www.w3.org/1999/xlink">
<g id="graph0" class="graph" transform="scale(1 1) rotate(0) translate(4 169.8)">
<title>dependencies</title>
<polygon fill="white" stroke="transparent" points="-4,4 -4,-169.8 626,-169.8 626,4 -4,4"/>
<text text-anchor="middle" x="311" y="-8.2" font-family="sans-serif" font-size="14.00">dependencies</text>
<g id="clust1" class="cluster">
<title>cluster_UploadModule</title>
<polygon fill="none" stroke="black" stroke-dasharray="1,5" points="8,-32.8 8,-157.8 614,-157.8 614,-32.8 8,-32.8"/>
</g>
<g id="clust3" class="cluster">
<title>cluster_UploadModule_imports</title>
<polygon fill="none" stroke="black" points="496,-40.8 496,-92.8 606,-92.8 606,-40.8 496,-40.8"/>
</g>
<g id="clust6" class="cluster">
<title>cluster_UploadModule_providers</title>
<polygon fill="none" stroke="black" points="16,-40.8 16,-92.8 488,-92.8 488,-40.8 16,-40.8"/>
</g>
<!-- MinioModule -->
<g id="node1" class="node">
<title>MinioModule</title>
<polygon fill="#8dd3c7" stroke="black" points="597.78,-84.8 594.78,-88.8 573.78,-88.8 570.78,-84.8 504.22,-84.8 504.22,-48.8 597.78,-48.8 597.78,-84.8"/>
<text text-anchor="middle" x="551" y="-62.6" font-family="Times,serif" font-size="14.00">MinioModule</text>
</g>
<!-- UploadModule -->
<g id="node2" class="node">
<title>UploadModule</title>
<polygon fill="#8dd3c7" stroke="black" points="382.27,-149.8 379.27,-153.8 358.27,-153.8 355.27,-149.8 281.73,-149.8 281.73,-113.8 382.27,-113.8 382.27,-149.8"/>
<text text-anchor="middle" x="332" y="-127.6" font-family="Times,serif" font-size="14.00">UploadModule</text>
</g>
<!-- MinioModule&#45;&gt;UploadModule -->
<g id="edge1" class="edge">
<title>MinioModule&#45;&gt;UploadModule</title>
<path fill="none" stroke="black" d="M551,-84.91C551,-104.14 551,-131.8 551,-131.8 551,-131.8 392.52,-131.8 392.52,-131.8"/>
<polygon fill="black" stroke="black" points="392.52,-128.3 382.52,-131.8 392.52,-135.3 392.52,-128.3"/>
</g>
<!-- PostRepository -->
<g id="node3" class="node">
<title>PostRepository</title>
<ellipse fill="#fdb462" stroke="black" cx="410" cy="-66.8" rx="70.12" ry="18"/>
<text text-anchor="middle" x="410" y="-62.6" font-family="Times,serif" font-size="14.00">PostRepository</text>
</g>
<!-- PostRepository&#45;&gt;UploadModule -->
<g id="edge2" class="edge">
<title>PostRepository&#45;&gt;UploadModule</title>
<path fill="none" stroke="black" d="M361.16,-79.95C361.16,-79.95 361.16,-103.49 361.16,-103.49"/>
<polygon fill="black" stroke="black" points="357.66,-103.49 361.16,-113.49 364.66,-103.49 357.66,-103.49"/>
</g>
<!-- UploadService -->
<g id="node4" class="node">
<title>UploadService</title>
<ellipse fill="#fdb462" stroke="black" cx="254" cy="-66.8" rx="68.34" ry="18"/>
<text text-anchor="middle" x="254" y="-62.6" font-family="Times,serif" font-size="14.00">UploadService</text>
</g>
<!-- UploadService&#45;&gt;UploadModule -->
<g id="edge3" class="edge">
<title>UploadService&#45;&gt;UploadModule</title>
<path fill="none" stroke="black" d="M302.02,-79.64C302.02,-79.64 302.02,-103.32 302.02,-103.32"/>
<polygon fill="black" stroke="black" points="298.52,-103.32 302.02,-113.32 305.52,-103.32 298.52,-103.32"/>
</g>
<!-- UserRepository -->
<g id="node5" class="node">
<title>UserRepository</title>
<ellipse fill="#fdb462" stroke="black" cx="96" cy="-66.8" rx="71.8" ry="18"/>
<text text-anchor="middle" x="96" y="-62.6" font-family="Times,serif" font-size="14.00">UserRepository</text>
</g>
<!-- UserRepository&#45;&gt;UploadModule -->
<g id="edge4" class="edge">
<title>UserRepository&#45;&gt;UploadModule</title>
<path fill="none" stroke="black" d="M96,-84.91C96,-104.14 96,-131.8 96,-131.8 96,-131.8 271.66,-131.8 271.66,-131.8"/>
<polygon fill="black" stroke="black" points="271.66,-135.3 281.66,-131.8 271.66,-128.3 271.66,-135.3"/>
</g>
</g>
</svg>
