<?xml version="1.0" encoding="UTF-8" standalone="no"?>
<!DOCTYPE svg PUBLIC "-//W3C//DTD SVG 1.1//EN"
 "http://www.w3.org/Graphics/SVG/1.1/DTD/svg11.dtd">
<!-- Generated by graphviz version 3.0.0 (20220226.1711)
 -->
<!-- Title: dependencies Pages: 1 -->
<svg width="402pt" height="174pt"
 viewBox="0.00 0.00 402.00 173.80" xmlns="http://www.w3.org/2000/svg" xmlns:xlink="http://www.w3.org/1999/xlink">
<g id="graph0" class="graph" transform="scale(1 1) rotate(0) translate(4 169.8)">
<title>dependencies</title>
<polygon fill="white" stroke="transparent" points="-4,4 -4,-169.8 398,-169.8 398,4 -4,4"/>
<text text-anchor="middle" x="197" y="-8.2" font-family="sans-serif" font-size="14.00">dependencies</text>
<g id="clust1" class="cluster">
<title>cluster_CategoryModule</title>
<polygon fill="none" stroke="black" stroke-dasharray="1,5" points="8,-32.8 8,-157.8 386,-157.8 386,-32.8 8,-32.8"/>
</g>
<g id="clust6" class="cluster">
<title>cluster_CategoryModule_providers</title>
<polygon fill="none" stroke="black" points="16,-40.8 16,-92.8 378,-92.8 378,-40.8 16,-40.8"/>
</g>
<!-- CategoryRepository -->
<g id="node1" class="node">
<title>CategoryRepository</title>
<ellipse fill="#fdb462" stroke="black" cx="281" cy="-66.8" rx="88.63" ry="18"/>
<text text-anchor="middle" x="281" y="-62.6" font-family="Times,serif" font-size="14.00">CategoryRepository</text>
</g>
<!-- CategoryModule -->
<g id="node3" class="node">
<title>CategoryModule</title>
<polygon fill="#8dd3c7" stroke="black" points="245.37,-149.8 242.37,-153.8 221.37,-153.8 218.37,-149.8 134.63,-149.8 134.63,-113.8 245.37,-113.8 245.37,-149.8"/>
<text text-anchor="middle" x="190" y="-127.6" font-family="Times,serif" font-size="14.00">CategoryModule</text>
</g>
<!-- CategoryRepository&#45;&gt;CategoryModule -->
<g id="edge1" class="edge">
<title>CategoryRepository&#45;&gt;CategoryModule</title>
<path fill="none" stroke="black" d="M218.81,-79.95C218.81,-79.95 218.81,-103.49 218.81,-103.49"/>
<polygon fill="black" stroke="black" points="215.31,-103.49 218.81,-113.49 222.31,-103.49 215.31,-103.49"/>
</g>
<!-- CategoryService -->
<g id="node2" class="node">
<title>CategoryService</title>
<ellipse fill="#fdb462" stroke="black" cx="99" cy="-66.8" rx="75.28" ry="18"/>
<text text-anchor="middle" x="99" y="-62.6" font-family="Times,serif" font-size="14.00">CategoryService</text>
</g>
<!-- CategoryService&#45;&gt;CategoryModule -->
<g id="edge2" class="edge">
<title>CategoryService&#45;&gt;CategoryModule</title>
<path fill="none" stroke="black" d="M154.48,-79.03C154.48,-79.03 154.48,-103.48 154.48,-103.48"/>
<polygon fill="black" stroke="black" points="150.98,-103.48 154.48,-113.48 157.98,-103.48 150.98,-103.48"/>
</g>
</g>
</svg>
