<?xml version="1.0" encoding="UTF-8" standalone="no"?>
<!DOCTYPE svg PUBLIC "-//W3C//DTD SVG 1.1//EN"
 "http://www.w3.org/Graphics/SVG/1.1/DTD/svg11.dtd">
<!-- Generated by graphviz version 3.0.0 (20220226.1711)
 -->
<!-- Title: dependencies Pages: 1 -->
<svg width="1038pt" height="174pt"
 viewBox="0.00 0.00 1038.00 173.80" xmlns="http://www.w3.org/2000/svg" xmlns:xlink="http://www.w3.org/1999/xlink">
<g id="graph0" class="graph" transform="scale(1 1) rotate(0) translate(4 169.8)">
<title>dependencies</title>
<polygon fill="white" stroke="transparent" points="-4,4 -4,-169.8 1034,-169.8 1034,4 -4,4"/>
<text text-anchor="middle" x="515" y="-8.2" font-family="sans-serif" font-size="14.00">dependencies</text>
<g id="clust1" class="cluster">
<title>cluster_AppModule</title>
<polygon fill="none" stroke="black" stroke-dasharray="1,5" points="8,-32.8 8,-157.8 1022,-157.8 1022,-32.8 8,-32.8"/>
</g>
<g id="clust3" class="cluster">
<title>cluster_AppModule_imports</title>
<polygon fill="none" stroke="black" points="16,-40.8 16,-92.8 1014,-92.8 1014,-40.8 16,-40.8"/>
</g>
<!-- AuthModule -->
<g id="node1" class="node">
<title>AuthModule</title>
<polygon fill="#8dd3c7" stroke="black" points="1005.55,-84.8 1002.55,-88.8 981.55,-88.8 978.55,-84.8 918.45,-84.8 918.45,-48.8 1005.55,-48.8 1005.55,-84.8"/>
<text text-anchor="middle" x="962" y="-62.6" font-family="Times,serif" font-size="14.00">AuthModule</text>
</g>
<!-- AppModule -->
<g id="node10" class="node">
<title>AppModule</title>
<polygon fill="#8dd3c7" stroke="black" points="555.66,-149.8 552.66,-153.8 531.66,-153.8 528.66,-149.8 472.34,-149.8 472.34,-113.8 555.66,-113.8 555.66,-149.8"/>
<text text-anchor="middle" x="514" y="-127.6" font-family="Times,serif" font-size="14.00">AppModule</text>
</g>
<!-- AuthModule&#45;&gt;AppModule -->
<g id="edge1" class="edge">
<title>AuthModule&#45;&gt;AppModule</title>
<path fill="none" stroke="black" d="M962,-84.81C962,-107.29 962,-142.8 962,-142.8 962,-142.8 565.74,-142.8 565.74,-142.8"/>
<polygon fill="black" stroke="black" points="565.74,-139.3 555.74,-142.8 565.74,-146.3 565.74,-139.3"/>
</g>
<!-- CategoryModule -->
<g id="node2" class="node">
<title>CategoryModule</title>
<polygon fill="#8dd3c7" stroke="black" points="900.37,-84.8 897.37,-88.8 876.37,-88.8 873.37,-84.8 789.63,-84.8 789.63,-48.8 900.37,-48.8 900.37,-84.8"/>
<text text-anchor="middle" x="845" y="-62.6" font-family="Times,serif" font-size="14.00">CategoryModule</text>
</g>
<!-- CategoryModule&#45;&gt;AppModule -->
<g id="edge2" class="edge">
<title>CategoryModule&#45;&gt;AppModule</title>
<path fill="none" stroke="black" d="M845,-84.93C845,-105.37 845,-135.8 845,-135.8 845,-135.8 565.92,-135.8 565.92,-135.8"/>
<polygon fill="black" stroke="black" points="565.92,-132.3 555.92,-135.8 565.92,-139.3 565.92,-132.3"/>
</g>
<!-- MailModule -->
<g id="node3" class="node">
<title>MailModule</title>
<polygon fill="#8dd3c7" stroke="black" points="771.99,-84.8 768.99,-88.8 747.99,-88.8 744.99,-84.8 686.01,-84.8 686.01,-48.8 771.99,-48.8 771.99,-84.8"/>
<text text-anchor="middle" x="729" y="-62.6" font-family="Times,serif" font-size="14.00">MailModule</text>
</g>
<!-- MailModule&#45;&gt;AppModule -->
<g id="edge3" class="edge">
<title>MailModule&#45;&gt;AppModule</title>
<path fill="none" stroke="black" d="M729,-85.07C729,-103.36 729,-128.8 729,-128.8 729,-128.8 565.71,-128.8 565.71,-128.8"/>
<polygon fill="black" stroke="black" points="565.71,-125.3 555.71,-128.8 565.71,-132.3 565.71,-125.3"/>
</g>
<!-- MinioModule -->
<g id="node4" class="node">
<title>MinioModule</title>
<polygon fill="#8dd3c7" stroke="black" points="667.78,-84.8 664.78,-88.8 643.78,-88.8 640.78,-84.8 574.22,-84.8 574.22,-48.8 667.78,-48.8 667.78,-84.8"/>
<text text-anchor="middle" x="621" y="-62.6" font-family="Times,serif" font-size="14.00">MinioModule</text>
</g>
<!-- MinioModule&#45;&gt;AppModule -->
<g id="edge4" class="edge">
<title>MinioModule&#45;&gt;AppModule</title>
<path fill="none" stroke="black" d="M621,-84.81C621,-100.85 621,-121.8 621,-121.8 621,-121.8 565.68,-121.8 565.68,-121.8"/>
<polygon fill="black" stroke="black" points="565.68,-118.3 555.68,-121.8 565.68,-125.3 565.68,-118.3"/>
</g>
<!-- PostModule -->
<g id="node5" class="node">
<title>PostModule</title>
<polygon fill="#8dd3c7" stroke="black" points="555.68,-84.8 552.68,-88.8 531.68,-88.8 528.68,-84.8 472.32,-84.8 472.32,-48.8 555.68,-48.8 555.68,-84.8"/>
<text text-anchor="middle" x="514" y="-62.6" font-family="Times,serif" font-size="14.00">PostModule</text>
</g>
<!-- PostModule&#45;&gt;AppModule -->
<g id="edge5" class="edge">
<title>PostModule&#45;&gt;AppModule</title>
<path fill="none" stroke="black" d="M514,-84.91C514,-84.91 514,-103.79 514,-103.79"/>
<polygon fill="black" stroke="black" points="510.5,-103.79 514,-113.79 517.5,-103.79 510.5,-103.79"/>
</g>
<!-- PrismaModule -->
<g id="node6" class="node">
<title>PrismaModule</title>
<polygon fill="#8dd3c7" stroke="black" points="454.44,-84.8 451.44,-88.8 430.44,-88.8 427.44,-84.8 355.56,-84.8 355.56,-48.8 454.44,-48.8 454.44,-84.8"/>
<text text-anchor="middle" x="405" y="-62.6" font-family="Times,serif" font-size="14.00">PrismaModule</text>
</g>
<!-- PrismaModule&#45;&gt;AppModule -->
<g id="edge6" class="edge">
<title>PrismaModule&#45;&gt;AppModule</title>
<path fill="none" stroke="black" d="M405,-84.81C405,-100.85 405,-121.8 405,-121.8 405,-121.8 462.17,-121.8 462.17,-121.8"/>
<polygon fill="black" stroke="black" points="462.17,-125.3 472.17,-121.8 462.17,-118.3 462.17,-125.3"/>
</g>
<!-- RedisModule -->
<g id="node7" class="node">
<title>RedisModule</title>
<polygon fill="#8dd3c7" stroke="black" points="337.94,-84.8 334.94,-88.8 313.94,-88.8 310.94,-84.8 246.06,-84.8 246.06,-48.8 337.94,-48.8 337.94,-84.8"/>
<text text-anchor="middle" x="292" y="-62.6" font-family="Times,serif" font-size="14.00">RedisModule</text>
</g>
<!-- RedisModule&#45;&gt;AppModule -->
<g id="edge7" class="edge">
<title>RedisModule&#45;&gt;AppModule</title>
<path fill="none" stroke="black" d="M292,-85.07C292,-103.36 292,-128.8 292,-128.8 292,-128.8 462.24,-128.8 462.24,-128.8"/>
<polygon fill="black" stroke="black" points="462.24,-132.3 472.24,-128.8 462.24,-125.3 462.24,-132.3"/>
</g>
<!-- UploadModule -->
<g id="node8" class="node">
<title>UploadModule</title>
<polygon fill="#8dd3c7" stroke="black" points="228.27,-84.8 225.27,-88.8 204.27,-88.8 201.27,-84.8 127.73,-84.8 127.73,-48.8 228.27,-48.8 228.27,-84.8"/>
<text text-anchor="middle" x="178" y="-62.6" font-family="Times,serif" font-size="14.00">UploadModule</text>
</g>
<!-- UploadModule&#45;&gt;AppModule -->
<g id="edge8" class="edge">
<title>UploadModule&#45;&gt;AppModule</title>
<path fill="none" stroke="black" d="M178,-84.93C178,-105.37 178,-135.8 178,-135.8 178,-135.8 462.12,-135.8 462.12,-135.8"/>
<polygon fill="black" stroke="black" points="462.12,-139.3 472.12,-135.8 462.12,-132.3 462.12,-139.3"/>
</g>
<!-- UserModule -->
<g id="node9" class="node">
<title>UserModule</title>
<polygon fill="#8dd3c7" stroke="black" points="109.99,-84.8 106.99,-88.8 85.99,-88.8 82.99,-84.8 24.01,-84.8 24.01,-48.8 109.99,-48.8 109.99,-84.8"/>
<text text-anchor="middle" x="67" y="-62.6" font-family="Times,serif" font-size="14.00">UserModule</text>
</g>
<!-- UserModule&#45;&gt;AppModule -->
<g id="edge9" class="edge">
<title>UserModule&#45;&gt;AppModule</title>
<path fill="none" stroke="black" d="M67,-84.81C67,-107.29 67,-142.8 67,-142.8 67,-142.8 461.95,-142.8 461.95,-142.8"/>
<polygon fill="black" stroke="black" points="461.95,-146.3 471.95,-142.8 461.95,-139.3 461.95,-146.3"/>
</g>
</g>
</svg>
