<?xml version="1.0" encoding="UTF-8" standalone="no"?>
<!DOCTYPE svg PUBLIC "-//W3C//DTD SVG 1.1//EN"
 "http://www.w3.org/Graphics/SVG/1.1/DTD/svg11.dtd">
<!-- Generated by graphviz version 3.0.0 (20220226.1711)
 -->
<!-- Title: dependencies Pages: 1 -->
<svg width="184pt" height="247pt"
 viewBox="0.00 0.00 184.00 246.80" xmlns="http://www.w3.org/2000/svg" xmlns:xlink="http://www.w3.org/1999/xlink">
<g id="graph0" class="graph" transform="scale(1 1) rotate(0) translate(4 242.8)">
<title>dependencies</title>
<polygon fill="white" stroke="transparent" points="-4,4 -4,-242.8 180,-242.8 180,4 -4,4"/>
<text text-anchor="middle" x="88" y="-8.2" font-family="sans-serif" font-size="14.00">dependencies</text>
<g id="clust1" class="cluster">
<title>cluster_MinioModule</title>
<polygon fill="none" stroke="black" stroke-dasharray="1,5" points="8,-32.8 8,-230.8 168,-230.8 168,-32.8 8,-32.8"/>
</g>
<g id="clust6" class="cluster">
<title>cluster_MinioModule_providers</title>
<polygon fill="none" stroke="black" points="16,-40.8 16,-92.8 160,-92.8 160,-40.8 16,-40.8"/>
</g>
<g id="clust4" class="cluster">
<title>cluster_MinioModule_exports</title>
<polygon fill="none" stroke="black" points="32,-170.8 32,-222.8 144,-222.8 144,-170.8 32,-170.8"/>
</g>
<!-- MinioService  -->
<g id="node1" class="node">
<title>MinioService </title>
<polygon fill="#fb8072" stroke="black" points="135.71,-214.8 40.29,-214.8 40.29,-178.8 135.71,-178.8 135.71,-214.8"/>
<text text-anchor="middle" x="88" y="-192.6" font-family="Times,serif" font-size="14.00">MinioService </text>
</g>
<!-- MinioModule -->
<g id="node2" class="node">
<title>MinioModule</title>
<polygon fill="#8dd3c7" stroke="black" points="134.78,-149.8 131.78,-153.8 110.78,-153.8 107.78,-149.8 41.22,-149.8 41.22,-113.8 134.78,-113.8 134.78,-149.8"/>
<text text-anchor="middle" x="88" y="-127.6" font-family="Times,serif" font-size="14.00">MinioModule</text>
</g>
<!-- MinioModule&#45;&gt;MinioService  -->
<g id="edge1" class="edge">
<title>MinioModule&#45;&gt;MinioService </title>
<path fill="none" stroke="black" stroke-dasharray="5,2" d="M88,-149.91C88,-149.91 88,-168.79 88,-168.79"/>
<polygon fill="black" stroke="black" points="84.5,-168.79 88,-178.79 91.5,-168.79 84.5,-168.79"/>
</g>
<!-- MinioService -->
<g id="node3" class="node">
<title>MinioService</title>
<ellipse fill="#fdb462" stroke="black" cx="88" cy="-66.8" rx="63.71" ry="18"/>
<text text-anchor="middle" x="88" y="-62.6" font-family="Times,serif" font-size="14.00">MinioService</text>
</g>
<!-- MinioService&#45;&gt;MinioModule -->
<g id="edge2" class="edge">
<title>MinioService&#45;&gt;MinioModule</title>
<path fill="none" stroke="black" d="M88,-84.91C88,-84.91 88,-103.79 88,-103.79"/>
<polygon fill="black" stroke="black" points="84.5,-103.79 88,-113.79 91.5,-103.79 84.5,-103.79"/>
</g>
</g>
</svg>
