<?xml version="1.0" encoding="UTF-8" standalone="no"?>
<!DOCTYPE svg PUBLIC "-//W3C//DTD SVG 1.1//EN"
 "http://www.w3.org/Graphics/SVG/1.1/DTD/svg11.dtd">
<!-- Generated by graphviz version 3.0.0 (20220226.1711)
 -->
<!-- Title: dependencies Pages: 1 -->
<svg width="3625pt" height="391pt"
 viewBox="0.00 0.00 3625.00 390.80" xmlns="http://www.w3.org/2000/svg" xmlns:xlink="http://www.w3.org/1999/xlink">
<g id="graph0" class="graph" transform="scale(1 1) rotate(0) translate(4 386.8)">
<title>dependencies</title>
<polygon fill="white" stroke="transparent" points="-4,4 -4,-386.8 3621,-386.8 3621,4 -4,4"/>
<text text-anchor="middle" x="1808.5" y="-8.2" font-family="sans-serif" font-size="14.00">dependencies</text>
<g id="clust1" class="cluster">
<title>cluster_AppModule</title>
<polygon fill="none" stroke="black" stroke-dasharray="1,5" points="1889,-108.8 1889,-374.8 2473,-374.8 2473,-108.8 1889,-108.8"/>
</g>
<g id="clust3" class="cluster">
<title>cluster_AppModule_imports</title>
<polygon fill="none" stroke="black" points="1897,-116.8 1897,-309.8 2465,-309.8 2465,-116.8 1897,-116.8"/>
</g>
<g id="clust7" class="cluster">
<title>cluster_AuthModule</title>
<polygon fill="none" stroke="black" stroke-dasharray="1,5" points="8,-108.8 8,-176.8 730,-176.8 730,-108.8 8,-108.8"/>
</g>
<g id="clust10" class="cluster">
<title>cluster_AuthModule_exports</title>
<polygon fill="none" stroke="black" points="16,-116.8 16,-168.8 122,-168.8 122,-116.8 16,-116.8"/>
</g>
<g id="clust12" class="cluster">
<title>cluster_AuthModule_providers</title>
<polygon fill="none" stroke="black" points="130,-116.8 130,-168.8 722,-168.8 722,-116.8 130,-116.8"/>
</g>
<g id="clust13" class="cluster">
<title>cluster_CategoryModule</title>
<polygon fill="none" stroke="black" stroke-dasharray="1,5" points="1777,-32.8 1777,-100.8 2155,-100.8 2155,-32.8 1777,-32.8"/>
</g>
<g id="clust18" class="cluster">
<title>cluster_CategoryModule_providers</title>
<polygon fill="none" stroke="black" points="1785,-40.8 1785,-92.8 2147,-92.8 2147,-40.8 1785,-40.8"/>
</g>
<g id="clust19" class="cluster">
<title>cluster_MailModule</title>
<polygon fill="none" stroke="black" stroke-dasharray="1,5" points="2481,-184.8 2481,-252.8 2741,-252.8 2741,-184.8 2481,-184.8"/>
</g>
<g id="clust22" class="cluster">
<title>cluster_MailModule_exports</title>
<polygon fill="none" stroke="black" points="2629,-192.8 2629,-244.8 2733,-244.8 2733,-192.8 2629,-192.8"/>
</g>
<g id="clust24" class="cluster">
<title>cluster_MailModule_providers</title>
<polygon fill="none" stroke="black" points="2489,-192.8 2489,-244.8 2621,-244.8 2621,-192.8 2489,-192.8"/>
</g>
<g id="clust25" class="cluster">
<title>cluster_MinioModule</title>
<polygon fill="none" stroke="black" stroke-dasharray="1,5" points="2749,-184.8 2749,-252.8 3029,-252.8 3029,-184.8 2749,-184.8"/>
</g>
<g id="clust28" class="cluster">
<title>cluster_MinioModule_exports</title>
<polygon fill="none" stroke="black" points="2909,-192.8 2909,-244.8 3021,-244.8 3021,-192.8 2909,-192.8"/>
</g>
<g id="clust30" class="cluster">
<title>cluster_MinioModule_providers</title>
<polygon fill="none" stroke="black" points="2757,-192.8 2757,-244.8 2901,-244.8 2901,-192.8 2757,-192.8"/>
</g>
<g id="clust31" class="cluster">
<title>cluster_PostModule</title>
<polygon fill="none" stroke="black" stroke-dasharray="1,5" points="942,-108.8 942,-176.8 1881,-176.8 1881,-108.8 942,-108.8"/>
</g>
<g id="clust36" class="cluster">
<title>cluster_PostModule_providers</title>
<polygon fill="none" stroke="black" points="950,-116.8 950,-168.8 1873,-168.8 1873,-116.8 950,-116.8"/>
</g>
<g id="clust37" class="cluster">
<title>cluster_PrismaModule</title>
<polygon fill="none" stroke="black" stroke-dasharray="1,5" points="3037,-184.8 3037,-252.8 3327,-252.8 3327,-184.8 3037,-184.8"/>
</g>
<g id="clust40" class="cluster">
<title>cluster_PrismaModule_exports</title>
<polygon fill="none" stroke="black" points="3203,-192.8 3203,-244.8 3319,-244.8 3319,-192.8 3203,-192.8"/>
</g>
<g id="clust42" class="cluster">
<title>cluster_PrismaModule_providers</title>
<polygon fill="none" stroke="black" points="3045,-192.8 3045,-244.8 3195,-244.8 3195,-192.8 3045,-192.8"/>
</g>
<g id="clust43" class="cluster">
<title>cluster_RedisModule</title>
<polygon fill="none" stroke="black" stroke-dasharray="1,5" points="3335,-184.8 3335,-252.8 3609,-252.8 3609,-184.8 3335,-184.8"/>
</g>
<g id="clust46" class="cluster">
<title>cluster_RedisModule_exports</title>
<polygon fill="none" stroke="black" points="3491,-192.8 3491,-244.8 3601,-244.8 3601,-192.8 3491,-192.8"/>
</g>
<g id="clust48" class="cluster">
<title>cluster_RedisModule_providers</title>
<polygon fill="none" stroke="black" points="3343,-192.8 3343,-244.8 3483,-244.8 3483,-192.8 3343,-192.8"/>
</g>
<g id="clust49" class="cluster">
<title>cluster_UploadModule</title>
<polygon fill="none" stroke="black" stroke-dasharray="1,5" points="738,-108.8 738,-176.8 906,-176.8 906,-108.8 738,-108.8"/>
</g>
<g id="clust54" class="cluster">
<title>cluster_UploadModule_providers</title>
<polygon fill="none" stroke="black" points="746,-116.8 746,-168.8 898,-168.8 898,-116.8 746,-116.8"/>
</g>
<g id="clust55" class="cluster">
<title>cluster_UserModule</title>
<polygon fill="none" stroke="black" stroke-dasharray="1,5" points="1733,-184.8 1733,-252.8 1881,-252.8 1881,-184.8 1733,-184.8"/>
</g>
<g id="clust60" class="cluster">
<title>cluster_UserModule_providers</title>
<polygon fill="none" stroke="black" points="1741,-192.8 1741,-244.8 1873,-244.8 1873,-192.8 1741,-192.8"/>
</g>
<!-- AuthModule -->
<g id="node1" class="node">
<title>AuthModule</title>
<polygon fill="#8dd3c7" stroke="black" points="1992.55,-236.8 1989.55,-240.8 1968.55,-240.8 1965.55,-236.8 1905.45,-236.8 1905.45,-200.8 1992.55,-200.8 1992.55,-236.8"/>
<text text-anchor="middle" x="1949" y="-214.6" font-family="Times,serif" font-size="14.00">AuthModule</text>
</g>
<!-- UserModule -->
<g id="node9" class="node">
<title>UserModule</title>
<polygon fill="#8dd3c7" stroke="black" points="1991.99,-301.8 1988.99,-305.8 1967.99,-305.8 1964.99,-301.8 1906.01,-301.8 1906.01,-265.8 1991.99,-265.8 1991.99,-301.8"/>
<text text-anchor="middle" x="1949" y="-279.6" font-family="Times,serif" font-size="14.00">UserModule</text>
</g>
<!-- AuthModule&#45;&gt;UserModule -->
<g id="edge39" class="edge">
<title>AuthModule&#45;&gt;UserModule</title>
<path fill="none" stroke="black" d="M1949,-236.91C1949,-236.91 1949,-255.79 1949,-255.79"/>
<polygon fill="black" stroke="black" points="1945.5,-255.79 1949,-265.79 1952.5,-255.79 1945.5,-255.79"/>
</g>
<!-- AppModule -->
<g id="node10" class="node">
<title>AppModule</title>
<polygon fill="#8dd3c7" stroke="black" points="2273.66,-366.8 2270.66,-370.8 2249.66,-370.8 2246.66,-366.8 2190.34,-366.8 2190.34,-330.8 2273.66,-330.8 2273.66,-366.8"/>
<text text-anchor="middle" x="2232" y="-344.6" font-family="Times,serif" font-size="14.00">AppModule</text>
</g>
<!-- AuthModule&#45;&gt;AppModule -->
<g id="edge1" class="edge">
<title>AuthModule&#45;&gt;AppModule</title>
<path fill="none" stroke="black" d="M1992.79,-218.8C1996.02,-218.8 1998.04,-218.8 1998.04,-218.8 1998.04,-218.8 1998.04,-359.8 1998.04,-359.8 1998.04,-359.8 2180.17,-359.8 2180.17,-359.8"/>
<polygon fill="black" stroke="black" points="2180.17,-363.3 2190.17,-359.8 2180.17,-356.3 2180.17,-363.3"/>
</g>
<!-- AuthService  -->
<g id="node11" class="node">
<title>AuthService </title>
<polygon fill="#fb8072" stroke="black" points="113.98,-160.8 24.02,-160.8 24.02,-124.8 113.98,-124.8 113.98,-160.8"/>
<text text-anchor="middle" x="69" y="-138.6" font-family="Times,serif" font-size="14.00">AuthService </text>
</g>
<!-- AuthModule&#45;&gt;AuthService  -->
<g id="edge12" class="edge">
<title>AuthModule&#45;&gt;AuthService </title>
<path fill="none" stroke="black" stroke-dasharray="5,2" d="M1913.02,-200.62C1913.02,-200.1 1913.02,-199.8 1913.02,-199.8 1913.02,-199.8 69,-199.8 69,-199.8 69,-199.8 69,-170.84 69,-170.84"/>
<polygon fill="black" stroke="black" points="72.5,-170.84 69,-160.84 65.5,-170.84 72.5,-170.84"/>
</g>
<!-- CategoryModule -->
<g id="node2" class="node">
<title>CategoryModule</title>
<polygon fill="#8dd3c7" stroke="black" points="2119.37,-160.8 2116.37,-164.8 2095.37,-164.8 2092.37,-160.8 2008.63,-160.8 2008.63,-124.8 2119.37,-124.8 2119.37,-160.8"/>
<text text-anchor="middle" x="2064" y="-138.6" font-family="Times,serif" font-size="14.00">CategoryModule</text>
</g>
<!-- CategoryModule&#45;&gt;AppModule -->
<g id="edge2" class="edge">
<title>CategoryModule&#45;&gt;AppModule</title>
<path fill="none" stroke="black" d="M2115.41,-160.89C2115.41,-209.41 2115.41,-338.8 2115.41,-338.8 2115.41,-338.8 2180.24,-338.8 2180.24,-338.8"/>
<polygon fill="black" stroke="black" points="2180.24,-342.3 2190.24,-338.8 2180.24,-335.3 2180.24,-342.3"/>
</g>
<!-- MailModule -->
<g id="node3" class="node">
<title>MailModule</title>
<polygon fill="#8dd3c7" stroke="black" points="1990.99,-160.8 1987.99,-164.8 1966.99,-164.8 1963.99,-160.8 1905.01,-160.8 1905.01,-124.8 1990.99,-124.8 1990.99,-160.8"/>
<text text-anchor="middle" x="1948" y="-138.6" font-family="Times,serif" font-size="14.00">MailModule</text>
</g>
<!-- MailModule&#45;&gt;AuthModule -->
<g id="edge10" class="edge">
<title>MailModule&#45;&gt;AuthModule</title>
<path fill="none" stroke="black" d="M1952.01,-160.81C1952.01,-160.81 1952.01,-190.65 1952.01,-190.65"/>
<polygon fill="black" stroke="black" points="1948.51,-190.65 1952.01,-200.65 1955.51,-190.65 1948.51,-190.65"/>
</g>
<!-- PostModule -->
<g id="node5" class="node">
<title>PostModule</title>
<polygon fill="#8dd3c7" stroke="black" points="2212.68,-236.8 2209.68,-240.8 2188.68,-240.8 2185.68,-236.8 2129.32,-236.8 2129.32,-200.8 2212.68,-200.8 2212.68,-236.8"/>
<text text-anchor="middle" x="2171" y="-214.6" font-family="Times,serif" font-size="14.00">PostModule</text>
</g>
<!-- MailModule&#45;&gt;PostModule -->
<g id="edge23" class="edge">
<title>MailModule&#45;&gt;PostModule</title>
<path fill="none" stroke="black" d="M1975.4,-160.9C1975.4,-171.89 1975.4,-183.8 1975.4,-183.8 1975.4,-183.8 2133.14,-183.8 2133.14,-183.8 2133.14,-183.8 2133.14,-190.48 2133.14,-190.48"/>
<polygon fill="black" stroke="black" points="2129.64,-190.48 2133.14,-200.48 2136.64,-190.48 2129.64,-190.48"/>
</g>
<!-- MailModule&#45;&gt;AppModule -->
<g id="edge3" class="edge">
<title>MailModule&#45;&gt;AppModule</title>
<path fill="none" stroke="black" d="M1991.03,-142.8C1998.17,-142.8 2003.3,-142.8 2003.3,-142.8 2003.3,-142.8 2003.3,-352.8 2003.3,-352.8 2003.3,-352.8 2180.32,-352.8 2180.32,-352.8"/>
<polygon fill="black" stroke="black" points="2180.32,-356.3 2190.32,-352.8 2180.32,-349.3 2180.32,-356.3"/>
</g>
<!-- MailService  -->
<g id="node18" class="node">
<title>MailService </title>
<polygon fill="#fb8072" stroke="black" points="2724.92,-236.8 2637.08,-236.8 2637.08,-200.8 2724.92,-200.8 2724.92,-236.8"/>
<text text-anchor="middle" x="2681" y="-214.6" font-family="Times,serif" font-size="14.00">MailService </text>
</g>
<!-- MailModule&#45;&gt;MailService  -->
<g id="edge19" class="edge">
<title>MailModule&#45;&gt;MailService </title>
<path fill="none" stroke="black" stroke-dasharray="5,2" d="M1983.2,-160.96C1983.2,-165.84 1983.2,-169.8 1983.2,-169.8 1983.2,-169.8 2681,-169.8 2681,-169.8 2681,-169.8 2681,-190.55 2681,-190.55"/>
<polygon fill="black" stroke="black" points="2677.5,-190.55 2681,-200.55 2684.5,-190.55 2677.5,-190.55"/>
</g>
<!-- MinioModule -->
<g id="node4" class="node">
<title>MinioModule</title>
<polygon fill="#8dd3c7" stroke="black" points="2230.78,-160.8 2227.78,-164.8 2206.78,-164.8 2203.78,-160.8 2137.22,-160.8 2137.22,-124.8 2230.78,-124.8 2230.78,-160.8"/>
<text text-anchor="middle" x="2184" y="-138.6" font-family="Times,serif" font-size="14.00">MinioModule</text>
</g>
<!-- UploadModule -->
<g id="node8" class="node">
<title>UploadModule</title>
<polygon fill="#8dd3c7" stroke="black" points="2111.27,-236.8 2108.27,-240.8 2087.27,-240.8 2084.27,-236.8 2010.73,-236.8 2010.73,-200.8 2111.27,-200.8 2111.27,-236.8"/>
<text text-anchor="middle" x="2061" y="-214.6" font-family="Times,serif" font-size="14.00">UploadModule</text>
</g>
<!-- MinioModule&#45;&gt;UploadModule -->
<g id="edge35" class="edge">
<title>MinioModule&#45;&gt;UploadModule</title>
<path fill="none" stroke="black" d="M2136.96,-142.8C2129.56,-142.8 2124.3,-142.8 2124.3,-142.8 2124.3,-142.8 2124.3,-218.8 2124.3,-218.8 2124.3,-218.8 2121.49,-218.8 2121.49,-218.8"/>
<polygon fill="black" stroke="black" points="2121.49,-215.3 2111.49,-218.8 2121.49,-222.3 2121.49,-215.3"/>
</g>
<!-- MinioModule&#45;&gt;AppModule -->
<g id="edge4" class="edge">
<title>MinioModule&#45;&gt;AppModule</title>
<path fill="none" stroke="black" d="M2226.38,-161.08C2226.38,-161.08 2226.38,-320.56 2226.38,-320.56"/>
<polygon fill="black" stroke="black" points="2222.88,-320.56 2226.38,-330.56 2229.88,-320.56 2222.88,-320.56"/>
</g>
<!-- MinioService  -->
<g id="node20" class="node">
<title>MinioService </title>
<polygon fill="#fb8072" stroke="black" points="3012.71,-236.8 2917.29,-236.8 2917.29,-200.8 3012.71,-200.8 3012.71,-236.8"/>
<text text-anchor="middle" x="2965" y="-214.6" font-family="Times,serif" font-size="14.00">MinioService </text>
</g>
<!-- MinioModule&#45;&gt;MinioService  -->
<g id="edge21" class="edge">
<title>MinioModule&#45;&gt;MinioService </title>
<path fill="none" stroke="black" stroke-dasharray="5,2" d="M2217.35,-160.99C2217.35,-164.34 2217.35,-166.8 2217.35,-166.8 2217.35,-166.8 2965,-166.8 2965,-166.8 2965,-166.8 2965,-190.61 2965,-190.61"/>
<polygon fill="black" stroke="black" points="2961.5,-190.61 2965,-200.61 2968.5,-190.61 2961.5,-190.61"/>
</g>
<!-- PostModule&#45;&gt;AppModule -->
<g id="edge5" class="edge">
<title>PostModule&#45;&gt;AppModule</title>
<path fill="none" stroke="black" d="M2205.28,-236.88C2205.28,-236.88 2205.28,-320.46 2205.28,-320.46"/>
<polygon fill="black" stroke="black" points="2201.78,-320.46 2205.28,-330.46 2208.78,-320.46 2201.78,-320.46"/>
</g>
<!-- PrismaModule -->
<g id="node6" class="node">
<title>PrismaModule</title>
<polygon fill="#8dd3c7" stroke="black" points="2347.44,-160.8 2344.44,-164.8 2323.44,-164.8 2320.44,-160.8 2248.56,-160.8 2248.56,-124.8 2347.44,-124.8 2347.44,-160.8"/>
<text text-anchor="middle" x="2298" y="-138.6" font-family="Times,serif" font-size="14.00">PrismaModule</text>
</g>
<!-- PrismaModule&#45;&gt;AppModule -->
<g id="edge6" class="edge">
<title>PrismaModule&#45;&gt;AppModule</title>
<path fill="none" stroke="black" d="M2261.31,-161.08C2261.31,-161.08 2261.31,-320.56 2261.31,-320.56"/>
<polygon fill="black" stroke="black" points="2257.81,-320.56 2261.31,-330.56 2264.81,-320.56 2257.81,-320.56"/>
</g>
<!-- PrismaService  -->
<g id="node27" class="node">
<title>PrismaService </title>
<polygon fill="#fb8072" stroke="black" points="3311.37,-236.8 3210.63,-236.8 3210.63,-200.8 3311.37,-200.8 3311.37,-236.8"/>
<text text-anchor="middle" x="3261" y="-214.6" font-family="Times,serif" font-size="14.00">PrismaService </text>
</g>
<!-- PrismaModule&#45;&gt;PrismaService  -->
<g id="edge31" class="edge">
<title>PrismaModule&#45;&gt;PrismaService </title>
<path fill="none" stroke="black" stroke-dasharray="5,2" d="M2298.29,-160.95C2298.29,-162.1 2298.29,-162.8 2298.29,-162.8 2298.29,-162.8 3261,-162.8 3261,-162.8 3261,-162.8 3261,-190.77 3261,-190.77"/>
<polygon fill="black" stroke="black" points="3257.5,-190.77 3261,-200.77 3264.5,-190.77 3257.5,-190.77"/>
</g>
<!-- RedisModule -->
<g id="node7" class="node">
<title>RedisModule</title>
<polygon fill="#8dd3c7" stroke="black" points="2456.94,-160.8 2453.94,-164.8 2432.94,-164.8 2429.94,-160.8 2365.06,-160.8 2365.06,-124.8 2456.94,-124.8 2456.94,-160.8"/>
<text text-anchor="middle" x="2411" y="-138.6" font-family="Times,serif" font-size="14.00">RedisModule</text>
</g>
<!-- RedisModule&#45;&gt;AuthModule -->
<g id="edge11" class="edge">
<title>RedisModule&#45;&gt;AuthModule</title>
<path fill="none" stroke="black" d="M2395.76,-160.93C2395.76,-171.11 2395.76,-181.8 2395.76,-181.8 2395.76,-181.8 1959.81,-181.8 1959.81,-181.8 1959.81,-181.8 1959.81,-190.73 1959.81,-190.73"/>
<polygon fill="black" stroke="black" points="1956.31,-190.73 1959.81,-200.73 1963.31,-190.73 1956.31,-190.73"/>
</g>
<!-- RedisModule&#45;&gt;AppModule -->
<g id="edge7" class="edge">
<title>RedisModule&#45;&gt;AppModule</title>
<path fill="none" stroke="black" d="M2426.24,-161.08C2426.24,-211.5 2426.24,-348.8 2426.24,-348.8 2426.24,-348.8 2283.67,-348.8 2283.67,-348.8"/>
<polygon fill="black" stroke="black" points="2283.67,-345.3 2273.67,-348.8 2283.67,-352.3 2283.67,-345.3"/>
</g>
<!-- RedisService  -->
<g id="node29" class="node">
<title>RedisService </title>
<polygon fill="#fb8072" stroke="black" points="3592.87,-236.8 3499.13,-236.8 3499.13,-200.8 3592.87,-200.8 3592.87,-236.8"/>
<text text-anchor="middle" x="3546" y="-214.6" font-family="Times,serif" font-size="14.00">RedisService </text>
</g>
<!-- RedisModule&#45;&gt;RedisService  -->
<g id="edge33" class="edge">
<title>RedisModule&#45;&gt;RedisService </title>
<path fill="none" stroke="black" stroke-dasharray="5,2" d="M2456.9,-136.8C2669.24,-136.8 3546,-136.8 3546,-136.8 3546,-136.8 3546,-190.6 3546,-190.6"/>
<polygon fill="black" stroke="black" points="3542.5,-190.6 3546,-200.6 3549.5,-190.6 3542.5,-190.6"/>
</g>
<!-- UploadModule&#45;&gt;AppModule -->
<g id="edge8" class="edge">
<title>UploadModule&#45;&gt;AppModule</title>
<path fill="none" stroke="black" d="M2061,-237C2061,-272.11 2061,-345.8 2061,-345.8 2061,-345.8 2180.17,-345.8 2180.17,-345.8"/>
<polygon fill="black" stroke="black" points="2180.17,-349.3 2190.17,-345.8 2180.17,-342.3 2180.17,-349.3"/>
</g>
<!-- UserModule&#45;&gt;AppModule -->
<g id="edge9" class="edge">
<title>UserModule&#45;&gt;AppModule</title>
<path fill="none" stroke="black" d="M1992.04,-283.8C2063.23,-283.8 2197.73,-283.8 2197.73,-283.8 2197.73,-283.8 2197.73,-320.69 2197.73,-320.69"/>
<polygon fill="black" stroke="black" points="2194.23,-320.69 2197.73,-330.69 2201.23,-320.69 2194.23,-320.69"/>
</g>
<!-- AuthService -->
<g id="node12" class="node">
<title>AuthService</title>
<ellipse fill="#fdb462" stroke="black" cx="197" cy="-142.8" rx="59.11" ry="18"/>
<text text-anchor="middle" x="197" y="-138.6" font-family="Times,serif" font-size="14.00">AuthService</text>
</g>
<!-- AuthService&#45;&gt;AuthModule -->
<g id="edge13" class="edge">
<title>AuthService&#45;&gt;AuthModule</title>
<path fill="none" stroke="black" d="M197,-160.81C197,-176.85 197,-197.8 197,-197.8 197,-197.8 1920.82,-197.8 1920.82,-197.8 1920.82,-197.8 1920.82,-198.09 1920.82,-198.09"/>
<polygon fill="black" stroke="black" points="1917.32,-190.72 1920.82,-200.72 1924.32,-190.72 1917.32,-190.72"/>
</g>
<!-- JwtStrategy -->
<g id="node13" class="node">
<title>JwtStrategy</title>
<ellipse fill="#fdb462" stroke="black" cx="496" cy="-142.8" rx="56.77" ry="18"/>
<text text-anchor="middle" x="496" y="-138.6" font-family="Times,serif" font-size="14.00">JwtStrategy</text>
</g>
<!-- JwtStrategy&#45;&gt;AuthModule -->
<g id="edge14" class="edge">
<title>JwtStrategy&#45;&gt;AuthModule</title>
<path fill="none" stroke="black" d="M496,-160.99C496,-175.98 496,-194.8 496,-194.8 496,-194.8 1936.41,-194.8 1936.41,-194.8 1936.41,-194.8 1936.41,-195.38 1936.41,-195.38"/>
<polygon fill="black" stroke="black" points="1932.91,-190.61 1936.41,-200.61 1939.91,-190.61 1932.91,-190.61"/>
</g>
<!-- RefreshStrategy -->
<g id="node14" class="node">
<title>RefreshStrategy</title>
<ellipse fill="#fdb462" stroke="black" cx="348" cy="-142.8" rx="73" ry="18"/>
<text text-anchor="middle" x="348" y="-138.6" font-family="Times,serif" font-size="14.00">RefreshStrategy</text>
</g>
<!-- RefreshStrategy&#45;&gt;AuthModule -->
<g id="edge15" class="edge">
<title>RefreshStrategy&#45;&gt;AuthModule</title>
<path fill="none" stroke="black" d="M348,-161.04C348,-176.37 348,-195.8 348,-195.8 348,-195.8 1928.62,-195.8 1928.62,-195.8 1928.62,-195.8 1928.62,-196.29 1928.62,-196.29"/>
<polygon fill="black" stroke="black" points="1925.12,-190.68 1928.62,-200.68 1932.12,-190.68 1925.12,-190.68"/>
</g>
<!-- UserRepository -->
<g id="node15" class="node">
<title>UserRepository</title>
<ellipse fill="#fdb462" stroke="black" cx="642" cy="-142.8" rx="71.8" ry="18"/>
<text text-anchor="middle" x="642" y="-138.6" font-family="Times,serif" font-size="14.00">UserRepository</text>
</g>
<!-- UserRepository&#45;&gt;AuthModule -->
<g id="edge16" class="edge">
<title>UserRepository&#45;&gt;AuthModule</title>
<path fill="none" stroke="black" d="M599.01,-157.26C599.01,-172.03 599.01,-192.8 599.01,-192.8 599.01,-192.8 1944.21,-192.8 1944.21,-192.8 1944.21,-192.8 1944.21,-193.59 1944.21,-193.59"/>
<polygon fill="black" stroke="black" points="1940.71,-190.74 1944.21,-200.74 1947.71,-190.74 1940.71,-190.74"/>
</g>
<!-- UserRepository&#45;&gt;PostModule -->
<g id="edge30" class="edge">
<title>UserRepository&#45;&gt;PostModule</title>
<path fill="none" stroke="black" d="M656.33,-160.47C656.33,-170.39 656.33,-180.8 656.33,-180.8 656.33,-180.8 2149.73,-180.8 2149.73,-180.8 2149.73,-180.8 2149.73,-190.69 2149.73,-190.69"/>
<polygon fill="black" stroke="black" points="2146.23,-190.69 2149.73,-200.69 2153.23,-190.69 2146.23,-190.69"/>
</g>
<!-- UserRepository&#45;&gt;UploadModule -->
<g id="edge38" class="edge">
<title>UserRepository&#45;&gt;UploadModule</title>
<path fill="none" stroke="black" d="M627.67,-160.67C627.67,-174.32 627.67,-190.8 627.67,-190.8 627.67,-190.8 2035.81,-190.8 2035.81,-190.8 2035.81,-190.8 2035.81,-191.78 2035.81,-191.78"/>
<polygon fill="black" stroke="black" points="2032.31,-190.59 2035.81,-200.59 2039.31,-190.59 2032.31,-190.59"/>
</g>
<!-- UserRepository&#45;&gt;UserModule -->
<g id="edge40" class="edge">
<title>UserRepository&#45;&gt;UserModule</title>
<path fill="none" stroke="black" d="M684.99,-157.43C684.99,-194.61 684.99,-289.8 684.99,-289.8 684.99,-289.8 1895.86,-289.8 1895.86,-289.8"/>
<polygon fill="black" stroke="black" points="1895.86,-293.3 1905.86,-289.8 1895.86,-286.3 1895.86,-293.3"/>
</g>
<!-- CategoryRepository -->
<g id="node16" class="node">
<title>CategoryRepository</title>
<ellipse fill="#fdb462" stroke="black" cx="1882" cy="-66.8" rx="88.63" ry="18"/>
<text text-anchor="middle" x="1882" y="-62.6" font-family="Times,serif" font-size="14.00">CategoryRepository</text>
</g>
<!-- CategoryRepository&#45;&gt;CategoryModule -->
<g id="edge17" class="edge">
<title>CategoryRepository&#45;&gt;CategoryModule</title>
<path fill="none" stroke="black" d="M1926.94,-82.54C1926.94,-95.52 1926.94,-111.8 1926.94,-111.8 1926.94,-111.8 2045.52,-111.8 2045.52,-111.8 2045.52,-111.8 2045.52,-114.77 2045.52,-114.77"/>
<polygon fill="black" stroke="black" points="2042.02,-114.77 2045.52,-124.77 2049.02,-114.77 2042.02,-114.77"/>
</g>
<!-- CategoryRepository&#45;&gt;PostModule -->
<g id="edge24" class="edge">
<title>CategoryRepository&#45;&gt;PostModule</title>
<path fill="none" stroke="black" d="M1948.88,-78.72C1948.88,-87.81 1948.88,-98.8 1948.88,-98.8 1948.88,-98.8 2135.12,-98.8 2135.12,-98.8 2135.12,-98.8 2135.12,-190.57 2135.12,-190.57"/>
<polygon fill="black" stroke="black" points="2131.62,-190.57 2135.12,-200.57 2138.62,-190.57 2131.62,-190.57"/>
</g>
<!-- CategoryService -->
<g id="node17" class="node">
<title>CategoryService</title>
<ellipse fill="#fdb462" stroke="black" cx="2064" cy="-66.8" rx="75.28" ry="18"/>
<text text-anchor="middle" x="2064" y="-62.6" font-family="Times,serif" font-size="14.00">CategoryService</text>
</g>
<!-- CategoryService&#45;&gt;CategoryModule -->
<g id="edge18" class="edge">
<title>CategoryService&#45;&gt;CategoryModule</title>
<path fill="none" stroke="black" d="M2082.48,-84.43C2082.48,-84.43 2082.48,-114.74 2082.48,-114.74"/>
<polygon fill="black" stroke="black" points="2078.98,-114.74 2082.48,-124.74 2085.98,-114.74 2078.98,-114.74"/>
</g>
<!-- MailService -->
<g id="node19" class="node">
<title>MailService</title>
<ellipse fill="#fdb462" stroke="black" cx="2555" cy="-218.8" rx="58.46" ry="18"/>
<text text-anchor="middle" x="2555" y="-214.6" font-family="Times,serif" font-size="14.00">MailService</text>
</g>
<!-- MailService&#45;&gt;MailModule -->
<g id="edge20" class="edge">
<title>MailService&#45;&gt;MailModule</title>
<path fill="none" stroke="black" d="M2555,-200.76C2555,-187.51 2555,-171.8 2555,-171.8 2555,-171.8 1967.6,-171.8 1967.6,-171.8 1967.6,-171.8 1967.6,-170.72 1967.6,-170.72"/>
<polygon fill="black" stroke="black" points="1971.1,-171 1967.6,-161 1964.1,-171 1971.1,-171"/>
</g>
<!-- MinioService -->
<g id="node21" class="node">
<title>MinioService</title>
<ellipse fill="#fdb462" stroke="black" cx="2829" cy="-218.8" rx="63.71" ry="18"/>
<text text-anchor="middle" x="2829" y="-214.6" font-family="Times,serif" font-size="14.00">MinioService</text>
</g>
<!-- MinioService&#45;&gt;MinioModule -->
<g id="edge22" class="edge">
<title>MinioService&#45;&gt;MinioModule</title>
<path fill="none" stroke="black" d="M2829,-200.68C2829,-186.02 2829,-167.8 2829,-167.8 2829,-167.8 2221.86,-167.8 2221.86,-167.8 2221.86,-167.8 2221.86,-167.12 2221.86,-167.12"/>
<polygon fill="black" stroke="black" points="2225.36,-170.97 2221.86,-160.97 2218.36,-170.97 2225.36,-170.97"/>
</g>
<!-- PostCommentRepository -->
<g id="node22" class="node">
<title>PostCommentRepository</title>
<ellipse fill="#fdb462" stroke="black" cx="1432" cy="-142.8" rx="108.3" ry="18"/>
<text text-anchor="middle" x="1432" y="-138.6" font-family="Times,serif" font-size="14.00">PostCommentRepository</text>
</g>
<!-- PostCommentRepository&#45;&gt;PostModule -->
<g id="edge25" class="edge">
<title>PostCommentRepository&#45;&gt;PostModule</title>
<path fill="none" stroke="black" d="M1432,-161.04C1432,-168.23 1432,-174.8 1432,-174.8 1432,-174.8 2187.6,-174.8 2187.6,-174.8 2187.6,-174.8 2187.6,-190.65 2187.6,-190.65"/>
<polygon fill="black" stroke="black" points="2184.1,-190.65 2187.6,-200.65 2191.1,-190.65 2184.1,-190.65"/>
</g>
<!-- PostCommentService -->
<g id="node23" class="node">
<title>PostCommentService</title>
<ellipse fill="#fdb462" stroke="black" cx="1211" cy="-142.8" rx="94.95" ry="18"/>
<text text-anchor="middle" x="1211" y="-138.6" font-family="Times,serif" font-size="14.00">PostCommentService</text>
</g>
<!-- PostCommentService&#45;&gt;PostModule -->
<g id="edge26" class="edge">
<title>PostCommentService&#45;&gt;PostModule</title>
<path fill="none" stroke="black" d="M1211,-160.99C1211,-169.08 1211,-176.8 1211,-176.8 1211,-176.8 2174.97,-176.8 2174.97,-176.8 2174.97,-176.8 2174.97,-190.74 2174.97,-190.74"/>
<polygon fill="black" stroke="black" points="2171.47,-190.74 2174.97,-200.74 2178.47,-190.74 2171.47,-190.74"/>
</g>
<!-- PostLikeRepository -->
<g id="node24" class="node">
<title>PostLikeRepository</title>
<ellipse fill="#fdb462" stroke="black" cx="1777" cy="-142.8" rx="87.51" ry="18"/>
<text text-anchor="middle" x="1777" y="-138.6" font-family="Times,serif" font-size="14.00">PostLikeRepository</text>
</g>
<!-- PostLikeRepository&#45;&gt;PostModule -->
<g id="edge27" class="edge">
<title>PostLikeRepository&#45;&gt;PostModule</title>
<path fill="none" stroke="black" d="M1806.76,-159.79C1806.76,-171.81 1806.76,-185.8 1806.76,-185.8 1806.76,-185.8 2131.15,-185.8 2131.15,-185.8 2131.15,-185.8 2131.15,-190.76 2131.15,-190.76"/>
<polygon fill="black" stroke="black" points="2127.65,-190.76 2131.15,-200.76 2134.65,-190.76 2127.65,-190.76"/>
</g>
<!-- PostRepository -->
<g id="node25" class="node">
<title>PostRepository</title>
<ellipse fill="#fdb462" stroke="black" cx="1028" cy="-142.8" rx="70.12" ry="18"/>
<text text-anchor="middle" x="1028" y="-138.6" font-family="Times,serif" font-size="14.00">PostRepository</text>
</g>
<!-- PostRepository&#45;&gt;PostModule -->
<g id="edge28" class="edge">
<title>PostRepository&#45;&gt;PostModule</title>
<path fill="none" stroke="black" d="M1051.35,-159.96C1051.35,-169.23 1051.35,-178.8 1051.35,-178.8 1051.35,-178.8 2162.35,-178.8 2162.35,-178.8 2162.35,-178.8 2162.35,-190.67 2162.35,-190.67"/>
<polygon fill="black" stroke="black" points="2158.85,-190.67 2162.35,-200.67 2165.85,-190.67 2158.85,-190.67"/>
</g>
<!-- PostRepository&#45;&gt;UploadModule -->
<g id="edge36" class="edge">
<title>PostRepository&#45;&gt;UploadModule</title>
<path fill="none" stroke="black" d="M1004.65,-159.81C1004.65,-172.56 1004.65,-187.8 1004.65,-187.8 1004.65,-187.8 2086.19,-187.8 2086.19,-187.8 2086.19,-187.8 2086.19,-190.77 2086.19,-190.77"/>
<polygon fill="black" stroke="black" points="2082.69,-190.77 2086.19,-200.77 2089.69,-190.77 2082.69,-190.77"/>
</g>
<!-- PostService -->
<g id="node26" class="node">
<title>PostService</title>
<ellipse fill="#fdb462" stroke="black" cx="1615" cy="-142.8" rx="56.77" ry="18"/>
<text text-anchor="middle" x="1615" y="-138.6" font-family="Times,serif" font-size="14.00">PostService</text>
</g>
<!-- PostService&#45;&gt;PostModule -->
<g id="edge29" class="edge">
<title>PostService&#45;&gt;PostModule</title>
<path fill="none" stroke="black" d="M1615,-160.83C1615,-167.65 1615,-173.8 1615,-173.8 1615,-173.8 2200.22,-173.8 2200.22,-173.8 2200.22,-173.8 2200.22,-190.76 2200.22,-190.76"/>
<polygon fill="black" stroke="black" points="2196.72,-190.76 2200.22,-200.76 2203.72,-190.76 2196.72,-190.76"/>
</g>
<!-- PrismaService -->
<g id="node28" class="node">
<title>PrismaService</title>
<ellipse fill="#fdb462" stroke="black" cx="3120" cy="-218.8" rx="66.64" ry="18"/>
<text text-anchor="middle" x="3120" y="-214.6" font-family="Times,serif" font-size="14.00">PrismaService</text>
</g>
<!-- PrismaService&#45;&gt;PrismaModule -->
<g id="edge32" class="edge">
<title>PrismaService&#45;&gt;PrismaModule</title>
<path fill="none" stroke="black" d="M3120,-200.52C3120,-184.85 3120,-164.8 3120,-164.8 3120,-164.8 2322.76,-164.8 2322.76,-164.8 2322.76,-164.8 2322.76,-164.42 2322.76,-164.42"/>
<polygon fill="black" stroke="black" points="2326.26,-170.97 2322.76,-160.97 2319.26,-170.97 2326.26,-170.97"/>
</g>
<!-- RedisService -->
<g id="node30" class="node">
<title>RedisService</title>
<ellipse fill="#fdb462" stroke="black" cx="3413" cy="-218.8" rx="61.98" ry="18"/>
<text text-anchor="middle" x="3413" y="-214.6" font-family="Times,serif" font-size="14.00">RedisService</text>
</g>
<!-- RedisService&#45;&gt;RedisModule -->
<g id="edge34" class="edge">
<title>RedisService&#45;&gt;RedisModule</title>
<path fill="none" stroke="black" d="M3413,-200.77C3413,-180.03 3413,-148.8 3413,-148.8 3413,-148.8 2466.99,-148.8 2466.99,-148.8"/>
<polygon fill="black" stroke="black" points="2466.99,-145.3 2456.99,-148.8 2466.99,-152.3 2466.99,-145.3"/>
</g>
<!-- UploadService -->
<g id="node31" class="node">
<title>UploadService</title>
<ellipse fill="#fdb462" stroke="black" cx="822" cy="-142.8" rx="68.34" ry="18"/>
<text text-anchor="middle" x="822" y="-138.6" font-family="Times,serif" font-size="14.00">UploadService</text>
</g>
<!-- UploadService&#45;&gt;UploadModule -->
<g id="edge37" class="edge">
<title>UploadService&#45;&gt;UploadModule</title>
<path fill="none" stroke="black" d="M822,-160.98C822,-173.84 822,-188.8 822,-188.8 822,-188.8 2061,-188.8 2061,-188.8 2061,-188.8 2061,-190.66 2061,-190.66"/>
<polygon fill="black" stroke="black" points="2057.5,-190.66 2061,-200.66 2064.5,-190.66 2057.5,-190.66"/>
</g>
<!-- UserService -->
<g id="node32" class="node">
<title>UserService</title>
<ellipse fill="#fdb462" stroke="black" cx="1807" cy="-218.8" rx="58.46" ry="18"/>
<text text-anchor="middle" x="1807" y="-214.6" font-family="Times,serif" font-size="14.00">UserService</text>
</g>
<!-- UserService&#45;&gt;UserModule -->
<g id="edge41" class="edge">
<title>UserService&#45;&gt;UserModule</title>
<path fill="none" stroke="black" d="M1807,-236.82C1807,-254.17 1807,-277.8 1807,-277.8 1807,-277.8 1896.01,-277.8 1896.01,-277.8"/>
<polygon fill="black" stroke="black" points="1896.01,-281.3 1906.01,-277.8 1896.01,-274.3 1896.01,-281.3"/>
</g>
</g>
</svg>
